<?xml version="1.0" encoding="UTF-8"?>
<svg xmlns="http://www.w3.org/2000/svg" xmlns:xlink="http://www.w3.org/1999/xlink" width="18pt" height="18pt" viewBox="0 0 18 18" version="1.1">
<g id="surface1">
<path style=" stroke:none;fill-rule:nonzero;fill:rgb(0%,0%,0%);fill-opacity:1;" d="M 15.203125 0 L 2.796875 0 C 2.546875 0 2.34375 0.203125 2.34375 0.453125 L 2.34375 2.519531 C 2.34375 2.769531 2.546875 2.972656 2.796875 2.972656 C 3.046875 2.972656 3.25 2.769531 3.25 2.519531 L 3.25 0.902344 L 8.546875 0.902344 L 8.546875 17.097656 L 7.4375 17.097656 C 7.1875 17.097656 6.984375 17.300781 6.984375 17.546875 C 6.984375 17.796875 7.1875 18 7.4375 18 L 10.5625 18 C 10.8125 18 11.015625 17.796875 11.015625 17.546875 C 11.015625 17.300781 10.8125 17.097656 10.5625 17.097656 L 9.453125 17.097656 L 9.453125 0.902344 L 14.75 0.902344 L 14.75 2.519531 C 14.75 2.769531 14.953125 2.972656 15.203125 2.972656 C 15.453125 2.972656 15.65625 2.769531 15.65625 2.519531 L 15.65625 0.453125 C 15.65625 0.203125 15.453125 0 15.203125 0 Z M 15.203125 0 "/>
</g>
</svg>
